<?xml version="1.0" ?><svg enable-background="new 0 0 128 128" id="Слой_1" version="1.1" viewBox="0 0 128 128" xml:space="preserve" xmlns="http://www.w3.org/2000/svg" xmlns:xlink="http://www.w3.org/1999/xlink"><g><g><path d="M59.5615234,72.0356445c-10.265625,0-18.6181641-8.3520508-18.6181641-18.6176758    S49.2958984,34.800293,59.5615234,34.800293s18.6181641,8.3520508,18.6181641,18.6176758    S69.8271484,72.0356445,59.5615234,72.0356445z M59.5615234,38.800293c-8.0605469,0-14.6181641,6.5576172-14.6181641,14.6176758    s6.5576172,14.6176758,14.6181641,14.6176758s14.6181641-6.5576172,14.6181641-14.6176758    S67.6220703,38.800293,59.5615234,38.800293z" fill="#3399CC"/></g><g><path d="M28.3496094,94.1855469c-1.1044922,0-2-0.8955078-2-2    c0-13.1992188,14.8271484-23.9379883,33.0527344-23.9379883c8.4101562,0,16.4150391,2.2724609,22.5410156,6.3989258    c0.9160156,0.6171875,1.1582031,1.8598633,0.5419922,2.7758789c-0.6181641,0.9160156-1.859375,1.1601562-2.7763672,0.5415039    c-5.4726562-3.6860352-12.6845703-5.7163086-20.3066406-5.7163086c-16.0195312,0-29.0527344,8.9443359-29.0527344,19.9379883    C30.3496094,93.2900391,29.4541016,94.1855469,28.3496094,94.1855469z" fill="#3399CC"/></g><g><path d="M84.7802734,81.3896484c-0.5302734,0-1.0400391-0.2197266-1.4101562-0.5898438    s-0.5898438-0.8901367-0.5898438-1.4101562c0-0.5297852,0.2197266-1.0400391,0.5898438-1.4199219    c0.75-0.7397461,2.0800781-0.7397461,2.8300781,0c0.3691406,0.3798828,0.5800781,0.8901367,0.5800781,1.4199219    c0,0.5200195-0.2109375,1.0400391-0.5800781,1.4101562C85.8300781,81.1699219,85.3095703,81.3896484,84.7802734,81.3896484z" fill="#3399CC"/></g><g><path d="M87.4902344,85c-0.5302734,0-1.0507812-0.2202148-1.4208984-0.590332    C85.7001953,84.0400391,85.4902344,83.5200195,85.4902344,83c0-0.5302734,0.2099609-1.0400391,0.5791016-1.4204102    c0.7402344-0.7397461,2.0908203-0.7397461,2.8300781,0C89.2802734,81.949707,89.4902344,82.4697266,89.4902344,83    c0,0.5200195-0.2099609,1.0400391-0.5908203,1.409668C88.5302734,84.7797852,88.0195312,85,87.4902344,85z" fill="#3399CC"/></g><g><path d="M90.1894531,94.0200195c-0.5195312,0-1.0400391-0.2202148-1.4091797-0.590332    c-0.3701172-0.3696289-0.5800781-0.8896484-0.5800781-1.409668c0-0.5302734,0.2099609-1.0400391,0.5800781-1.4204102    c0.7597656-0.75,2.0898438-0.7397461,2.8291016,0c0.3701172,0.3803711,0.5908203,0.8901367,0.5908203,1.4204102    c0,0.5297852-0.2207031,1.0400391-0.5908203,1.409668C91.2402344,93.7998047,90.7197266,94.0200195,90.1894531,94.0200195z" fill="#3399CC"/></g><g><path d="M89.2900391,89.5097656c-0.5205078,0-1.0400391-0.2197266-1.4101562-0.5898438    s-0.5898438-0.8901367-0.5898438-1.4101562c0-0.5297852,0.2197266-1.0400391,0.5898438-1.4199219    c0.75-0.7402344,2.0800781-0.7402344,2.8300781,0c0.3701172,0.3798828,0.5800781,0.8901367,0.5800781,1.4199219    c0,0.5200195-0.2099609,1.0400391-0.5800781,1.4101562C90.3300781,89.2900391,89.8193359,89.5097656,89.2900391,89.5097656z" fill="#3399CC"/></g><g><path d="M100,57H84c-1.1044922,0-2-0.8955078-2-2s0.8955078-2,2-2h16c1.1044922,0,2,0.8955078,2,2    S101.1044922,57,100,57z" fill="#3399CC"/></g><g><path d="M92,65c-1.1044922,0-2-0.8955078-2-2V47c0-1.1044922,0.8955078-2,2-2s2,0.8955078,2,2v16    C94,64.1044922,93.1044922,65,92,65z" fill="#3399CC"/></g></g></svg>